<svg width="1500" height="1500" viewBox="0 0 1500 1500" fill="none" xmlns="http://www.w3.org/2000/svg">
<g clip-path="url(#clip0_78_69)">
<path d="M743.401 150.752C740.963 151.361 735.068 154.003 735.068 154.531C735.068 154.694 736.004 155.71 737.101 156.807L739.173 158.839L739.052 162.09L738.93 165.342L735.677 165.463L732.428 165.585L730.395 163.513C729.298 162.415 728.283 161.481 728.118 161.481C727.591 161.481 724.909 167.455 724.339 170.015C723.528 173.388 723.528 178.834 724.339 182.207C724.665 183.67 725.601 186.19 726.411 187.816L727.874 190.782L730.191 188.506L732.468 186.231L735.72 186.353L738.93 186.474L739.052 189.685L739.173 192.936L736.897 195.212C735.354 196.756 734.784 197.61 735.068 197.894C735.354 198.179 734.784 198.788 733.239 199.886C730.151 201.999 726.899 205.656 725.192 208.948L723.729 211.671L720.358 212.443C702.11 216.507 686.504 226.505 677.482 239.957L675.693 242.639L667.484 242.883C653.098 243.37 642.125 245.281 632.127 249.101L629.363 250.157L625.87 247.8C618.676 242.883 614.083 237.6 610.588 230.244L608.881 226.667V235.608C608.841 245.484 608.556 248.491 606.362 260.358L604.899 268.405L602.298 272.306C597.827 278.971 595.226 284.864 593.032 293.358C591.325 299.819 590.471 305.55 590.106 312.337L589.862 317.539H586.976C583.441 317.539 582.79 317.132 580.921 313.8C576.816 306.444 575.475 304.452 572.224 300.917C563.73 291.732 552.188 283.523 539.915 277.955L536.745 276.533L538.574 280.15C542.76 288.481 547.352 300.104 554.017 319.164C556.09 325.098 558.731 332.454 559.869 335.542C561.779 340.785 561.942 341.516 562.105 345.499C562.308 351.107 563.08 353.261 565.803 356.025C567.469 357.65 568.485 358.301 570.436 358.91L572.996 359.682L585.148 383.091L597.299 406.5L596.852 408.613C596.608 409.791 596.486 412.311 596.567 414.262C596.689 417.066 596.974 418.245 597.868 420.074C599.128 422.715 601.647 425.031 603.923 425.723C605.386 426.17 605.671 426.576 610.304 434.704C615.099 443.238 615.14 443.279 614.49 444.458C612.986 447.424 614.165 451.692 617.172 454.049C626.723 461.607 662.729 467.093 715.969 469.126C737.954 469.98 779.246 469.574 801.313 468.312C844.391 465.834 873.895 460.674 882.225 454.049C885.234 451.692 886.413 447.424 884.908 444.458C884.259 443.279 884.298 443.238 889.096 434.704C893.729 426.576 894.012 426.17 895.475 425.723C897.752 425.031 900.27 422.715 901.532 420.074C902.425 418.245 902.708 417.066 902.83 414.262C902.912 412.311 902.79 409.791 902.547 408.613L902.098 406.5L914.251 383.091L926.403 359.682L928.964 358.91C930.914 358.301 931.929 357.65 933.597 356.025C936.318 353.261 937.09 351.107 937.294 345.499C937.455 341.516 937.62 340.785 939.528 335.542C940.668 332.454 943.308 325.098 945.38 319.164C952.046 300.104 956.64 288.481 960.824 280.15L962.653 276.533L959.483 277.955C947.209 283.523 935.669 291.732 927.174 300.917C923.922 304.452 922.581 306.444 918.478 313.8C916.607 317.173 915.997 317.539 912.382 317.539H909.414V314.572C909.414 310.345 908.359 301.852 907.14 296.447C905.025 287.059 901.815 279.296 897.142 272.347L894.5 268.405L893.037 260.358C890.842 248.491 890.559 245.484 890.516 235.608V226.667L888.809 230.244C885.316 237.6 880.723 242.883 873.53 247.8L870.033 250.157L867.272 249.101C857.275 245.281 846.302 243.37 831.915 242.883L823.704 242.639L821.918 239.957C812.896 226.505 797.29 216.507 779.041 212.443L775.667 211.671L774.204 208.948C772.497 205.656 769.248 201.999 766.157 199.886C764.615 198.788 764.045 198.179 764.329 197.894C764.615 197.61 764.045 196.756 762.5 195.212L760.226 192.936L760.348 189.685L760.47 186.474L763.679 186.353L766.932 186.231L769.205 188.506L771.522 190.782L772.985 187.816C774.856 183.995 775.71 180.419 775.71 176.111C775.71 174.201 775.423 171.478 775.058 170.015C774.491 167.455 771.808 161.481 771.278 161.481C771.117 161.481 770.102 162.415 769.004 163.513L766.971 165.585L763.719 165.463L760.47 165.342L760.348 162.09L760.226 158.839L762.299 156.807C763.396 155.71 764.329 154.694 764.329 154.531C764.329 154.003 758.355 151.321 755.794 150.752C752.502 149.98 746.65 149.98 743.401 150.752ZM721.778 224.554C722.065 230.975 724.299 236.462 728.405 241.095L730.069 242.964L728.728 246.5C724.095 258.448 723.729 266.332 727.347 274.298C728.323 276.492 728.405 276.939 727.835 276.695C727.469 276.492 725.396 275.761 723.284 275.029C707.962 269.705 696.745 275.11 692.722 289.781C691.99 292.423 691.868 294.13 691.829 299.86C691.786 306.444 691.829 306.972 693.088 311.443C693.819 314.003 695.974 320.424 697.882 325.667C699.793 330.909 701.905 337.005 702.558 339.2C705.118 347.775 706.255 357.366 705.484 363.462C705.28 365.128 705.158 366.591 705.24 366.673C705.523 366.997 710.361 365.453 712.634 364.315C719.017 361.105 723.528 355.009 725.762 346.556C726.372 344.198 726.698 341.435 726.899 336.233C727.143 329.69 727.225 328.999 728.161 327.333C729.581 324.813 731.087 323.757 732.386 324.366C736.775 326.357 736.573 339.606 731.98 350.579C723.284 371.306 700.851 380.409 681.179 371.224C671.913 366.876 664.558 359.886 660.901 351.961C658.096 345.946 657.039 338.428 658.584 335.42C659.965 332.616 662.446 333.754 664.558 338.143C665.573 340.338 666.061 342.248 667.402 349.238C669.152 358.138 674.678 364.031 683.538 366.266C686.665 367.079 691.585 367.77 691.585 367.404C691.585 367.282 690.975 365.291 690.201 362.974C687.805 355.822 687.479 352.164 687.562 333.226C687.601 318.961 687.519 316.035 686.952 313.271C684.514 301.77 679.96 292.951 674.068 288.4C671.264 286.205 671.303 286.49 672.279 278.524C675.449 253.002 686.26 235.893 705.402 226.302C707.514 225.245 710.44 223.904 711.863 223.375C714.219 222.481 720.642 220.49 721.291 220.449C721.455 220.409 721.657 222.278 721.778 224.554ZM784.689 222.441C809.36 230.569 823.503 249.223 827.118 278.524C828.093 286.49 828.136 286.205 825.331 288.4C819.397 292.992 815.008 301.486 812.447 313.353C811.878 316.076 811.798 318.92 811.838 333.226C811.92 352.164 811.594 355.822 809.195 362.974C808.424 365.291 807.815 367.282 807.815 367.404C807.815 367.77 812.731 367.079 815.861 366.266C824.722 364.031 830.248 358.138 831.994 349.238C833.335 342.248 833.823 340.338 834.841 338.143C836.953 333.754 839.432 332.616 840.815 335.42C842.358 338.428 841.303 345.946 838.499 351.961C834.841 359.886 827.483 366.876 818.217 371.224C804.279 377.726 788.225 375.207 777.213 364.762C771.482 359.276 767.825 353.058 765.347 344.483C762.786 335.623 763.557 325.91 767.011 324.366C768.312 323.757 769.815 324.813 771.238 327.333C772.174 328.999 772.253 329.69 772.497 336.233C772.702 341.435 773.028 344.198 773.637 346.556C775.871 355.009 780.382 361.105 786.762 364.315C789.039 365.453 793.876 366.997 794.159 366.673C794.242 366.591 794.12 365.128 793.916 363.462C793.145 357.366 794.281 347.775 796.842 339.2C797.491 337.005 799.606 330.909 801.514 325.667C803.425 320.424 805.58 314.003 806.312 311.443C807.571 306.972 807.61 306.444 807.571 299.86C807.531 294.13 807.409 292.423 806.678 289.781C802.654 275.11 791.438 269.705 776.115 275.029C774.003 275.761 771.93 276.492 771.565 276.695C770.995 276.939 771.077 276.492 772.052 274.298C774.043 269.949 774.613 266.779 774.369 261.658C774.165 256.863 773.229 253.083 770.668 246.5L769.327 242.964L770.995 241.095C775.1 236.462 777.334 230.975 777.618 224.595L777.862 220.409L778.919 220.653C779.489 220.775 782.089 221.587 784.689 222.441ZM670.371 253.002C667.646 259.789 665.25 269.421 664.354 277.102C664.11 279.337 663.827 281.735 663.705 282.426L663.543 283.685L659.56 283.889C655.942 284.092 652.406 284.986 648.017 286.855C647.367 287.099 647.285 286.896 647.285 284.864C647.285 283.604 646.798 280.353 646.231 277.63C644.319 268.527 642.043 262.959 638.306 258.204C637.41 257.066 636.721 256.05 636.8 255.969C636.882 255.888 638.55 255.359 640.54 254.75C646.554 253.043 652.57 251.986 661.105 251.173C661.876 251.092 664.476 250.97 666.875 250.97L671.264 250.889L670.371 253.002ZM846.219 252.068C852.194 252.962 861.703 255.237 862.596 256.01C862.679 256.05 861.987 257.066 861.094 258.204C857.354 262.959 855.08 268.527 853.169 277.63C852.599 280.353 852.111 283.604 852.111 284.864C852.111 286.896 852.032 287.099 851.422 286.855C846.991 284.986 843.455 284.092 839.84 283.889L835.856 283.685L835.695 282.426C835.573 281.735 835.286 279.337 835.042 277.102C834.149 269.421 831.751 259.789 828.989 252.962L828.093 250.767L834.515 251.011C838.051 251.173 843.333 251.62 846.219 252.068ZM757.501 276.817C761.689 287.465 765.225 296.528 765.386 296.893C765.63 297.584 750.229 337.452 749.698 337.452C749.171 337.452 733.769 297.584 734.013 296.893C735.72 292.26 749.537 257.391 749.698 257.391C749.82 257.391 753.316 266.129 757.501 276.817ZM608.637 289.497C609.572 291.407 611.035 294.211 611.929 295.796C613.636 298.844 613.88 299.657 612.986 299.657C611.848 299.657 606.606 302.624 604.655 304.371C603.354 305.55 602.135 307.175 601.282 308.923C599.981 311.565 599.941 311.808 599.981 316.523C600.022 321.806 600.753 324.854 603.436 330.869C604.126 332.372 605.021 334.648 605.467 335.989C606.971 340.419 609.897 345.58 616.237 354.968C624.486 367.282 626.723 371.834 627.577 378.174C627.699 379.271 627.982 380.124 628.186 380.124C628.388 380.124 629.729 379.027 631.152 377.726C637.248 371.996 638.306 363.949 634.526 351.514C633.142 347.003 633.142 343.426 634.566 343.223C637.37 342.817 642.043 354.887 642.125 362.649C642.165 369.68 640.135 374.272 634.484 379.921C629.567 384.879 628.144 385.773 624.447 386.302C616.075 387.48 607.662 385.204 602.176 380.246C596.567 375.126 589.618 361.43 590.918 358.016C591.325 357 592.341 357.691 593.519 359.764C594.129 360.78 595.348 362.893 596.283 364.478C597.218 366.022 598.64 368.664 599.493 370.33C602.419 376.223 604.858 378.824 609.369 380.978C611.848 382.156 616.196 383.416 619.529 383.944L621.236 384.188L619.082 381.181C614.002 374.11 611.36 367.16 607.5 350.904C604.777 339.565 602.663 332.819 599.859 326.886L598.071 323.025L598.112 317.01C598.152 304.981 600.469 293.52 604.614 284.417L605.915 281.572L606.443 283.807C606.768 285.027 607.743 287.587 608.637 289.497ZM895.353 285.758C899.215 294.78 901.245 305.469 901.288 317.01L901.327 323.025L899.538 326.886C896.734 332.819 894.622 339.565 891.9 350.904C888.038 367.16 885.395 374.11 880.317 381.181L878.163 384.188L879.869 383.944C883.201 383.416 887.55 382.156 890.028 380.978C894.539 378.824 896.978 376.223 899.904 370.33C900.757 368.664 902.181 366.022 903.117 364.478C904.049 362.893 905.268 360.78 905.878 359.764C907.058 357.691 908.073 357 908.481 358.016C909.008 359.398 908.155 362.812 906.204 366.916C899.904 380.287 893.037 385.651 881.372 386.464C876.578 386.83 872.393 386.139 870.277 384.757C867.312 382.766 861.337 376.426 859.957 373.825C856.256 366.713 856.339 358.91 860.24 349.482C861.947 345.377 863.654 343.061 864.834 343.223C866.254 343.426 866.254 347.003 864.873 351.514C861.094 363.949 862.151 371.996 868.247 377.726C869.668 379.027 871.009 380.124 871.213 380.124C871.417 380.124 871.701 379.271 871.823 378.174C872.676 371.834 874.91 367.282 883.161 354.968C889.501 345.58 892.427 340.419 893.93 335.989C894.378 334.648 895.271 332.372 895.963 330.869C898.645 324.854 899.377 321.806 899.416 316.523C899.459 311.808 899.416 311.565 898.118 308.923C897.264 307.175 896.045 305.55 894.744 304.371C892.793 302.624 887.55 299.657 886.413 299.657C885.517 299.657 885.761 298.844 887.468 295.796C890.15 291.082 892.388 286.164 892.875 283.929C893.119 282.751 893.442 281.897 893.607 282.1C893.768 282.263 894.582 283.889 895.353 285.758ZM638.141 297.015C644.115 303.924 649.358 309.98 649.724 310.426C650.415 311.199 650.416 312.011 649.888 325.667C649.602 333.591 649.358 341.598 649.318 343.426C649.318 345.296 649.157 346.8 648.992 346.8C648.709 346.8 627.211 322.212 625.91 320.424C625.544 319.936 625.583 316.116 625.992 305.347C626.275 297.422 626.519 289.375 626.559 287.546C626.559 285.677 626.723 284.214 626.885 284.295C627.089 284.336 632.167 290.066 638.141 297.015ZM872.838 286.937C872.838 288.481 873.124 296.447 873.447 304.696C873.773 312.946 873.895 319.896 873.734 320.18C873.124 321.155 850.73 346.8 850.487 346.8C850.282 346.8 849.063 316.97 849.063 311.971C849.063 311.443 853.208 306.322 860.646 297.666C867.028 290.31 872.35 284.254 872.554 284.254C872.716 284.214 872.838 285.433 872.838 286.937ZM793.794 435.76C828.215 437.793 849.307 440.231 863.898 443.767C868.775 444.986 874.871 447.099 874.871 447.587C874.871 447.79 873.447 448.481 871.74 449.131C852.154 456.651 789.365 461.607 730.679 460.226C687.114 459.211 655.292 456.285 635.093 451.366C630.46 450.269 624.529 448.156 624.529 447.587C624.529 447.099 630.625 444.986 635.541 443.767C643.954 441.694 658.788 439.499 673.702 438.036C685.489 436.899 696.34 436.248 719.627 435.232C726.576 434.948 787.048 435.354 793.794 435.76Z" fill="#072C2A"/>
<path d="M644.768 529.842C587.83 548.414 541.134 563.736 540.972 563.898C540.85 564.062 541.216 570.725 541.866 578.693C542.841 591.208 542.922 593.281 542.394 593.607C542.069 593.811 526.382 600.029 507.484 607.466L473.143 620.957L473.022 622.34C472.859 624.291 488.668 892.433 489.44 900.724C494.276 953.11 512.361 1003.79 542.719 1049.75C579.539 1105.55 634.039 1154.36 704.182 1194.43C711.336 1198.54 717.106 1201.62 733.727 1210.24L749.698 1218.53L765.63 1210.24C780.709 1202.44 790.176 1197.36 796.637 1193.62C903.36 1132.13 972.934 1051.05 999.391 957.334C1004.68 938.723 1008.09 920.271 1009.96 900.52C1010.73 892.638 1026.54 624.331 1026.38 622.34L1026.26 620.957L991.914 607.466C973.016 600.029 957.328 593.811 957.005 593.607C956.475 593.281 956.557 591.251 957.533 578.693C958.182 570.646 958.508 563.98 958.346 563.819C957.694 563.209 750.512 495.949 749.375 495.988C748.766 496.031 701.704 511.228 644.768 529.842ZM846.219 542.726C899.172 559.957 942.619 574.139 942.741 574.261C942.82 574.343 942.414 580.845 941.805 588.73C941.235 596.573 940.869 603.156 941.034 603.278C941.195 603.443 956.923 609.7 975.982 617.22C995.084 624.696 1010.77 630.914 1010.93 631.036C1011.26 631.402 995.572 896.091 994.758 903.366C990.207 943.884 978.625 980.825 959.2 1016.71C923.965 1081.82 863.45 1139.4 783.43 1183.98C773.433 1189.55 750.472 1201.46 749.698 1201.46C748.927 1201.46 725.966 1189.55 715.969 1183.98C644.115 1143.95 588.114 1093.56 551.701 1036.26C525.569 995.172 510.004 951.159 504.639 903.366C503.827 896.091 488.14 631.402 488.465 631.036C488.627 630.914 504.315 624.696 523.415 617.22C542.476 609.7 558.203 603.443 558.366 603.278C558.528 603.156 558.162 596.573 557.594 588.73C556.984 580.845 556.577 574.343 556.659 574.261C556.903 574.06 748.927 511.472 749.497 511.433C749.698 511.393 793.224 525.493 846.219 542.726Z" fill="#072C2A"/>
<path d="M668.298 568.287C623.877 582.756 587.423 594.704 587.342 594.786C587.22 594.908 587.627 601.126 588.236 608.643C588.805 616.202 589.212 622.42 589.13 622.502C589.049 622.541 573.24 628.802 554.017 636.318C534.795 643.878 518.904 650.178 518.742 650.339C518.295 650.787 532.519 891.498 533.535 900.642C540.159 961.114 566.331 1016.95 611.32 1066.74C617.416 1073.52 632.045 1088.03 639.36 1094.62C669.597 1121.77 706.499 1146.92 745.757 1167.12L749.698 1169.15L753.642 1167.12C792.901 1146.92 829.8 1121.77 860.036 1094.62C867.351 1088.03 881.982 1073.52 888.078 1066.74C933.109 1016.91 959.157 961.236 965.905 900.52C966.881 891.58 981.103 650.748 980.658 650.339C980.454 650.178 964.604 643.878 945.38 636.318C926.159 628.802 910.349 622.541 910.267 622.502C910.188 622.42 910.593 616.202 911.163 608.643C911.773 601.126 912.178 594.866 912.056 594.786C911.812 594.5 749.942 541.873 749.497 541.913C749.293 541.913 712.717 553.778 668.298 568.287ZM823.177 581.332C863.127 594.338 895.963 605.107 896.167 605.311C896.368 605.473 896.045 611.368 895.475 618.927C894.866 626.242 894.418 632.255 894.5 632.295C894.539 632.338 910.349 638.556 929.613 646.115C948.876 653.674 964.848 659.971 965.092 660.136C965.375 660.337 963.589 693.255 958.996 771.327C955.42 832.327 952.29 884.957 952.086 888.328C948.349 940.43 930.183 988.058 897.264 1032.19C866.297 1073.69 822.04 1111.4 767.986 1142.33C759.574 1147.16 750.146 1152.28 749.698 1152.28C749.253 1152.28 739.823 1147.16 731.41 1142.33C677.36 1111.4 633.508 1074.05 602.298 1032.4C569.339 988.385 551.051 940.47 547.312 888.328C547.109 884.957 543.979 832.327 540.403 771.327C535.77 692.688 534.022 660.337 534.307 660.136C534.551 659.971 550.522 653.674 569.786 646.115C589.049 638.556 604.858 632.338 604.899 632.295C604.98 632.255 604.533 626.486 603.964 619.454C603.436 612.422 603.029 606.326 603.07 605.921C603.192 605.272 614.693 601.41 675.735 581.497C715.643 568.452 748.766 557.802 749.415 557.762C750.024 557.762 783.187 568.369 823.177 581.332Z" fill="#072C2A"/>
<path d="M747.586 581.82L746.041 582.268V613.684V645.097H749.698H753.356V613.684V582.268L751.527 581.781C749.497 581.253 749.659 581.253 747.586 581.82Z" fill="#072C2A"/>
<path d="M826.429 656.07L808.263 700.003L810.536 704.066C812.365 707.319 812.896 708.008 813.139 707.441C813.341 706.91 847.155 625.346 851.544 614.821C851.666 614.495 845.692 612.178 844.756 612.178C844.674 612.178 836.426 631.929 826.429 656.07Z" fill="#072C2A"/>
<path d="M648.382 614.129C645.621 615.065 645.213 615.309 645.377 616.04C645.578 616.894 683.617 708.861 684.471 710.489C684.959 711.421 685.041 711.299 687.074 707.441C688.293 705.082 689.064 703.091 688.982 702.643C688.616 701.223 652 612.992 651.757 613.032C651.635 613.032 650.132 613.562 648.382 614.129Z" fill="#072C2A"/>
<path d="M744.538 672.041C717.92 695.492 701.418 722.476 696.706 750.357C694.511 763.32 694.877 778.032 697.721 791.849C700.564 805.788 707.27 822.451 715.521 836.268C717.106 838.91 718.407 841.144 718.407 841.266C718.407 841.388 717.267 840.413 715.887 839.115C708.532 832.327 697.559 824.685 688.942 820.461C683.294 817.657 676.019 815.054 670.45 813.877C665.534 812.819 653.707 812.859 649.114 813.877C629.771 818.345 614.896 834.36 610.1 856.019C609.044 860.816 608.841 870.893 609.694 875.934C613.027 896.051 626.845 909.624 648.504 914.096C652.04 914.827 660.251 915.76 663.461 915.76H664.802L663.178 913.608C656.063 904.177 657.161 892.433 665.982 883.655C673.62 876.056 683.904 874.228 693.088 878.818C699.754 882.192 705.972 889.751 710.117 899.544C710.888 901.333 711.498 902.958 711.498 903.162C711.498 903.324 709.913 903.528 707.962 903.65C701.905 903.933 697.638 906.658 695.322 911.657C694.468 913.486 694.267 914.54 694.224 917.183C694.224 920.07 694.389 920.758 695.566 923.157C698.126 928.36 702.271 930.799 708.45 930.799C712.555 930.799 712.513 930.594 710.644 936.163C704.71 953.963 689.39 969.813 666.792 981.557C661.754 984.157 661.428 984.401 662.525 984.645C663.217 984.809 663.988 984.971 664.275 985.093C664.558 985.175 666.835 985.419 669.313 985.663C686.83 987.327 707.313 979.402 726.25 963.674C727.957 962.254 728.079 962.498 727.103 965.79C724.299 975.257 717.633 981.557 704.466 987.327L700.442 989.076L700.729 990.497C701.095 992.691 703.207 996.959 705.075 999.357C709.465 1005.09 720.803 1010.86 727.631 1010.86C729.258 1010.86 729.38 1010.94 729.38 1012C729.38 1015.25 732.59 1023.54 736.125 1029.47C739.743 1035.53 747.059 1042.56 749.698 1042.56C751.975 1042.56 758.641 1036.54 762.094 1031.38C765.752 1025.9 769.37 1017.32 769.897 1012.85L770.141 1010.86H771.848C778.593 1010.86 789.932 1005.05 794.321 999.357C796.192 996.959 798.305 992.691 798.671 990.497L798.954 989.076L794.931 987.327C781.763 981.557 775.1 975.257 772.296 965.79C771.321 962.498 771.443 962.254 773.189 963.674C792.087 979.402 812.569 987.327 830.086 985.663C832.564 985.419 834.841 985.175 835.125 985.093C835.408 984.971 836.182 984.809 836.871 984.645C837.968 984.401 837.645 984.157 832.604 981.557C810.009 969.813 794.647 953.921 788.755 936.163C786.927 930.594 786.844 930.799 790.95 930.799C797.125 930.799 801.27 928.36 803.831 923.157C805.01 920.758 805.172 920.07 805.172 917.183C805.132 914.54 804.928 913.486 804.075 911.657C801.758 906.658 797.491 903.933 791.477 903.65C789.487 903.528 787.902 903.324 787.902 903.162C787.902 902.958 788.512 901.333 789.283 899.544C793.428 889.751 799.646 882.192 806.312 878.818C815.495 874.228 825.776 876.056 833.418 883.655C842.236 892.433 843.333 904.177 836.222 913.608L834.597 915.76H835.938C839.148 915.76 847.356 914.827 850.892 914.096C872.554 909.624 886.371 896.051 889.705 875.934C890.559 870.893 890.355 860.816 889.297 856.019C885.682 839.681 876.334 826.392 863.288 818.955C859.753 816.965 854.266 814.81 850.282 813.877C845.692 812.859 833.866 812.819 828.946 813.877C823.381 815.054 816.105 817.657 810.457 820.461C801.84 824.685 790.868 832.327 783.552 839.115C782.129 840.413 780.992 841.388 780.992 841.266C780.992 841.144 782.294 838.91 783.879 836.268C787.859 829.605 793.51 817.9 795.988 811.234C801.231 797.174 803.587 785.549 804.035 771.693C804.605 752.752 800.905 736.214 792.126 718.657C785.829 706.1 777.252 694.313 765.956 682.73C759.656 676.269 750.472 667.856 749.698 667.856C749.497 667.856 747.138 669.767 744.538 672.041Z" fill="#072C2A"/>
<path d="M566.331 671.675C564.624 672.367 563.121 673.017 562.999 673.138C562.877 673.26 587.586 698.132 617.863 728.411L672.971 783.476L672.727 781.647C672.605 780.632 672.401 778.154 672.239 776.161L671.995 772.503L620.911 721.379C592.829 693.298 569.786 670.295 569.664 670.334C569.542 670.377 568.038 670.944 566.331 671.675Z" fill="#072C2A"/>
<path d="M878.489 721.379L827.404 772.503L827.16 776.161C826.996 778.154 826.794 780.632 826.673 781.647L826.429 783.476L881.537 728.411C911.813 698.132 936.48 673.221 936.318 673.059C936.157 672.937 934.855 672.328 933.392 671.797C931.929 671.23 930.466 670.66 930.14 670.538C929.735 670.377 914.169 685.656 878.489 721.379Z" fill="#072C2A"/>
<path d="M563.364 777.868C563.527 780.062 563.771 781.974 563.934 782.095C564.258 782.461 616.481 804.081 617.009 804.123C617.253 804.123 619.042 803.066 620.992 801.764L624.568 799.408L623.227 798.838C620.383 797.619 564.949 774.619 564.055 774.293L563.08 773.927L563.364 777.868Z" fill="#072C2A"/>
<path d="M905.799 786.567C889.175 793.434 875.398 799.164 875.197 799.204C874.953 799.286 876.456 800.466 878.528 801.846L882.268 804.324L886.615 802.496C888.974 801.52 901.001 796.564 913.276 791.444L935.627 782.178L935.953 778.965C936.114 777.219 936.197 775.35 936.157 774.902C936.035 774.088 933.554 775.064 905.799 786.567Z" fill="#072C2A"/>
<path d="M567.794 853.053C567.916 853.906 568.038 855.574 568.038 856.75V858.866L577.507 858.783L586.936 858.661L587.179 856.506C587.342 855.33 587.586 853.745 587.708 852.971L587.992 851.55H577.751H567.51L567.794 853.053Z" fill="#072C2A"/>
<path d="M911.691 852.971C911.813 853.745 912.056 855.33 912.218 856.506L912.462 858.661L921.932 858.783L931.359 858.866V856.75C931.359 855.574 931.481 853.906 931.603 853.053L931.89 851.55H921.648H911.407L911.691 852.971Z" fill="#072C2A"/>
<path d="M588.764 917.832C581.734 920.758 575.8 923.319 575.597 923.483C575.272 923.806 576.329 929.171 576.938 930.229C577.101 930.512 582.384 928.522 591.812 924.62C599.859 921.289 606.565 918.442 606.728 918.28C607.053 917.954 602.379 912.51 601.851 912.51C601.688 912.55 595.795 914.949 588.764 917.832Z" fill="#072C2A"/>
<path d="M894.826 915.232C893.442 916.735 892.345 918.076 892.345 918.198C892.345 918.32 899.093 921.167 907.301 924.538C917.259 928.644 922.298 930.555 922.459 930.229C923.069 929.131 924.126 923.806 923.8 923.483C923.477 923.197 897.831 912.51 897.426 912.51C897.344 912.51 896.167 913.73 894.826 915.232Z" fill="#072C2A"/>
<path d="M671.468 937.178C670.572 937.544 667.972 937.91 665.738 937.992L661.593 938.236L633.063 966.765L604.492 995.334L606.199 998.22C607.093 999.763 608.028 1001.15 608.191 1001.27C608.394 1001.39 623.145 986.839 641.028 968.96C658.868 951.117 673.419 936.529 673.297 936.529C673.175 936.568 672.361 936.852 671.468 937.178Z" fill="#072C2A"/>
<path d="M858.573 969.121C876.334 986.921 891.004 1001.39 891.208 1001.27C891.369 1001.15 892.305 999.763 893.198 998.22L894.905 995.334L866.297 966.722L837.685 938.114H834.637C831.955 938.114 829.8 937.787 827.118 937.056C826.673 936.934 840.815 951.36 858.573 969.121Z" fill="#072C2A"/>
<path d="M680.082 1009.32C679.759 1010.05 674.8 1022.07 669.03 1036.02L658.502 1061.41L661.306 1064.01C663.461 1065.97 664.232 1066.5 664.476 1066.09C664.68 1065.76 669.719 1053.65 675.735 1039.1L686.665 1012.69L685.163 1010.37C683.782 1008.22 683.538 1008.01 682.154 1008.01C680.813 1008.01 680.569 1008.18 680.082 1009.32Z" fill="#072C2A"/>
<path d="M814.316 1010.29C813.545 1011.39 812.408 1012.97 811.756 1013.78L810.579 1015.25L821.552 1041.83C827.605 1056.42 832.726 1068.4 832.891 1068.45C833.052 1068.49 834.433 1067.39 835.896 1066.01L838.578 1063.49L827.282 1036.26C821.064 1021.26 815.901 1008.87 815.822 1008.66C815.739 1008.42 815.09 1009.15 814.316 1010.29Z" fill="#072C2A"/>
<path d="M746.041 1095.1V1124.85L747.869 1125.83L749.698 1126.8L751.527 1125.83L753.356 1124.85V1095.1V1065.32H749.698H746.041V1095.1Z" fill="#072C2A"/>
<path d="M382.15 1079.18C380.078 1099.21 381.744 1122.17 386.621 1139.4C387.393 1142.17 387.515 1143.14 387.149 1143.38C386.011 1144.08 377.477 1145.09 370.852 1145.26C357.279 1145.66 344.436 1143.92 325.498 1139.08C321.556 1138.1 318.305 1137.33 318.224 1137.37C317.898 1137.7 327.855 1148.1 332.082 1151.88C350.288 1168.1 369.633 1179.76 391.579 1187.85C408.648 1194.1 417.751 1198.09 425.838 1202.72C427.871 1203.86 429.577 1204.75 429.618 1204.67C429.699 1204.59 433.194 1197.03 437.421 1187.89C444.248 1173.05 445.346 1170.98 447.215 1168.95C451.279 1164.52 456.237 1163.26 463.227 1164.84C468.429 1166.02 472.168 1167.73 478.427 1171.79C484.807 1175.9 490.131 1178.66 494.845 1180.2C497.893 1181.18 498.95 1181.34 503.217 1181.34C507.444 1181.34 508.297 1181.22 509.72 1180.45C513.011 1178.7 514.434 1176.18 514.718 1171.71C515.368 1160.41 504.111 1148.63 482.491 1138.1C475.866 1134.85 469.608 1132.29 459.204 1128.55C440.957 1121.93 426.448 1114.29 411.167 1103.15C402.105 1096.57 390.563 1086.16 384.467 1078.97L382.435 1076.62L382.15 1079.18Z" fill="#072C2A"/>
<path d="M1113.92 1080.07C1103.75 1091.89 1086.52 1105.59 1069.94 1114.98C1060.15 1120.55 1051.86 1124.33 1040.19 1128.55C1029.79 1132.29 1023.53 1134.85 1016.91 1138.1C995.288 1148.63 984.029 1160.41 984.681 1171.71C984.965 1176.18 986.388 1178.7 989.68 1180.45C991.1 1181.22 991.954 1181.34 996.181 1181.34C1000.45 1181.34 1001.51 1181.18 1004.55 1180.2C1009.27 1178.66 1014.59 1175.94 1020.89 1171.83C1023.77 1169.96 1027.35 1167.89 1028.82 1167.24C1032.23 1165.7 1038.61 1164.07 1041.33 1164.07C1043.81 1164.07 1047.18 1165.01 1049.22 1166.31C1052.83 1168.58 1053.89 1170.41 1061.98 1187.89C1066.2 1197.03 1069.7 1204.59 1069.78 1204.67C1069.82 1204.75 1071.53 1203.86 1073.56 1202.72C1081.65 1198.09 1090.75 1194.1 1107.82 1187.85C1129.77 1179.76 1149.11 1168.1 1167.32 1151.88C1171.54 1148.1 1181.5 1137.7 1181.17 1137.37C1181.09 1137.33 1177.84 1138.1 1173.9 1139.08C1154.96 1143.92 1142.12 1145.66 1128.55 1145.26C1121.92 1145.09 1113.39 1144.08 1112.25 1143.38C1111.88 1143.14 1112.01 1142.17 1112.78 1139.4C1116.88 1124.9 1118.79 1106.32 1117.9 1089.62C1117.65 1084.86 1117.33 1079.99 1117.17 1078.81L1116.88 1076.62L1113.92 1080.07Z" fill="#072C2A"/>
<path d="M437.909 1222.68C427.708 1244.62 419.214 1263.31 419.092 1264.13C418.645 1266.4 419.783 1269.29 422.018 1271.52C424.741 1274.29 428.968 1276.77 443.07 1283.76C467.251 1295.79 496.186 1307.29 525.163 1316.47C615.221 1344.92 717.267 1355.57 817.974 1346.95C884.097 1341.26 948.794 1327.04 1005.93 1305.5C1024.47 1298.51 1040.84 1291.44 1056.33 1283.76C1070.43 1276.77 1074.66 1274.29 1077.38 1271.52C1079.61 1269.29 1080.75 1266.4 1080.31 1264.13C1080.18 1263.31 1071.69 1244.62 1061.49 1222.68L1042.96 1182.69L1042.51 1184.88C1042.02 1187.32 1041.09 1188.86 1038.69 1191.02C1036.45 1193.01 1034.95 1193.94 1026.58 1198.33C950.827 1238.12 852.355 1260.02 749.497 1259.98C646.758 1259.94 548.49 1238.04 472.818 1198.33C464.447 1193.94 462.943 1193.01 460.708 1191.02C458.31 1188.86 457.375 1187.32 456.888 1184.88L456.44 1182.69L437.909 1222.68ZM462.78 1228.24C462.78 1228.65 465.584 1254.17 465.747 1255.06C465.788 1255.39 468.104 1250.88 470.868 1245.03C474.403 1237.55 476.11 1234.38 476.557 1234.38C476.923 1234.42 478.346 1234.99 479.687 1235.72L482.206 1237.02L474.607 1253.2C465.991 1271.57 467.251 1270.06 462.577 1267.58L460.139 1266.28L458.635 1252.91C457.822 1245.6 457.091 1239.54 457.009 1239.46C456.928 1239.38 454.693 1243.97 452.051 1249.66C449.369 1255.35 447.012 1259.98 446.768 1259.94C446.524 1259.94 445.102 1259.33 443.598 1258.64L440.835 1257.34L447.581 1243.12C451.279 1235.27 454.734 1227.92 455.262 1226.74L456.237 1224.58L459.529 1226.25C461.317 1227.14 462.78 1228.04 462.78 1228.24ZM1045.03 1228.53C1048.16 1230.31 1050.15 1233.85 1050.15 1237.63C1050.15 1240.35 1049.09 1242.59 1046.86 1244.62L1045.23 1246.12L1046.9 1246.37C1048.97 1246.73 1053.04 1248.85 1058.52 1252.46L1062.79 1255.23L1059.34 1256.97C1057.47 1257.95 1055.6 1258.72 1055.23 1258.72C1054.86 1258.76 1052.39 1257.46 1049.74 1255.88C1040.48 1250.27 1039.26 1249.86 1035.72 1251.57L1033.82 1252.46L1036.98 1259.17L1040.15 1265.88L1036.98 1267.5C1034.99 1268.47 1033.65 1268.96 1033.45 1268.72C1032.51 1267.7 1018.29 1236.7 1018.57 1236.41C1019.35 1235.68 1035.72 1228.28 1037.84 1227.71C1040.56 1226.98 1042.75 1227.23 1045.03 1228.53ZM491.35 1240.56C493.057 1241.25 494.48 1241.98 494.48 1242.14C494.48 1242.47 480.703 1274.69 480.459 1274.94C480.377 1275.02 478.914 1274.45 477.126 1273.68C475.094 1272.78 473.997 1272.09 474.078 1271.73C474.281 1270.75 487.774 1239.26 487.977 1239.26C488.099 1239.26 489.603 1239.82 491.35 1240.56ZM1013.74 1242.02C1017.19 1243.81 1019.96 1248.48 1019.96 1252.59C1019.96 1258.28 1016.99 1261.36 1008.17 1264.66C1006.5 1265.31 1004.96 1265.96 1004.76 1266.12C1004.55 1266.28 1005.45 1269.08 1006.71 1272.34C1007.97 1275.59 1008.98 1278.39 1008.98 1278.59C1008.98 1278.8 1007.52 1279.53 1005.73 1280.22C1002.8 1281.32 1002.44 1281.36 1002.12 1280.79C1000.77 1278.19 989.476 1248.04 989.759 1247.79C990.168 1247.43 1001.06 1243.2 1005.12 1241.82C1008.46 1240.72 1011.26 1240.76 1013.74 1242.02ZM512.727 1248.16C519.311 1250.19 523.253 1254.66 523.659 1260.51L523.862 1263.31L521.952 1263.07C520.936 1262.95 519.27 1262.74 518.295 1262.62C516.547 1262.38 516.507 1262.38 516.263 1260.47C515.734 1256.53 512.564 1253.89 508.378 1253.89C505.574 1253.89 503.949 1254.62 502.039 1256.73C500.25 1258.72 498.95 1261.49 497.975 1265.31C496.512 1271.28 497.812 1275.18 501.998 1277.09C505.412 1278.68 509.029 1277.74 511.589 1274.61L512.971 1272.99L515.897 1275.1C519.229 1277.5 519.229 1277.54 516.181 1280.55C511.955 1284.61 506.346 1285.54 500.169 1283.19C490.416 1279.45 487.286 1268.84 492.651 1257.71C496.674 1249.33 504.518 1245.6 512.727 1248.16ZM987.037 1248.6C987.037 1248.81 987.851 1257.34 988.866 1267.54C989.881 1277.74 990.655 1286.15 990.613 1286.2C990.533 1286.24 989.436 1286.68 988.174 1287.13L985.858 1287.98L985.614 1286.28C985.004 1281.76 982.16 1251.53 982.243 1250.63C982.322 1249.86 982.77 1249.5 984.193 1248.93C986.306 1248.11 987.037 1248.04 987.037 1248.6ZM547.84 1252.1C551.904 1253.36 555.277 1254.41 555.318 1254.45C555.562 1254.66 554.017 1258.76 553.692 1258.76C553.326 1258.76 539.062 1254.33 538.899 1254.13C538.737 1254.01 540.118 1249.82 540.322 1249.82C540.403 1249.82 543.817 1250.84 547.84 1252.1ZM970.212 1257.1C975.251 1259.37 977.284 1265.27 975.293 1271.77C974.845 1273.11 973.3 1276.36 971.88 1279C970.417 1281.6 969.033 1284.25 968.789 1284.89C968.262 1286.24 967.935 1286.28 975.943 1283.76C978.908 1282.78 981.429 1282.13 981.511 1282.29C981.795 1282.74 983.38 1288.15 983.297 1288.23C982.688 1288.63 960.419 1295.3 960.254 1295.1C960.133 1294.97 960.053 1293.47 960.053 1291.76C960.133 1287.78 961.19 1284.93 965.579 1276.89C967.774 1272.86 968.911 1270.26 969.075 1269.13C969.52 1264.98 967.935 1262.42 964.93 1262.42C961.678 1262.42 959.605 1264.74 959.889 1268.11C960.011 1269.49 960.011 1269.49 957.572 1269.98C953.631 1270.83 953.427 1270.79 953.104 1268.92C952.007 1262.34 958.103 1256.4 966.107 1256.37C967.652 1256.37 969.155 1256.61 970.212 1257.1ZM545.483 1259.57C547.068 1260.11 548.531 1260.67 548.734 1260.88C549.1 1261.2 552.31 1299 551.985 1299.32C551.945 1299.36 550.278 1298.92 548.287 1298.27L544.67 1297.13L544.264 1292.74L543.857 1288.31L537.07 1286.2L530.284 1284.08L527.723 1287.45C526.301 1289.32 524.96 1290.87 524.756 1290.87C524.512 1290.87 522.806 1290.38 520.936 1289.73L517.604 1288.59L529.633 1273.52C536.258 1265.23 541.907 1258.48 542.15 1258.56C542.435 1258.64 543.939 1259.09 545.483 1259.57ZM944.691 1265.1C949.446 1267.46 951.193 1272.86 949.242 1279.16C948.794 1280.59 946.965 1284.2 945.179 1287.17C941.844 1292.78 941.399 1293.92 942.658 1293.55C943.024 1293.43 945.746 1292.7 948.632 1291.88C951.558 1291.07 954.158 1290.34 954.402 1290.26C954.89 1290.1 955.542 1291.84 956.353 1295.38L956.597 1296.39L945.219 1299.56C938.918 1301.27 933.636 1302.61 933.392 1302.45C932.865 1302.12 932.865 1299.73 933.392 1296.93C933.92 1294.12 935.505 1290.79 939.571 1283.84C942.293 1279.16 942.902 1277.82 943.064 1276.08C943.429 1271.77 940.991 1269.17 937.498 1270.14C935.139 1270.75 934.042 1272.21 933.962 1274.74L933.88 1276.85L930.75 1277.42C928.068 1277.95 927.58 1277.95 927.257 1277.42C926.565 1276.4 927.092 1272.01 928.15 1270.1C931.036 1264.94 939.327 1262.42 944.691 1265.1ZM568.607 1266L571.411 1266.73L575.597 1279.9C577.954 1287.13 579.905 1293.1 579.946 1293.19C580.027 1293.22 581.246 1288.51 582.668 1282.62C584.091 1276.77 585.391 1271.57 585.554 1271.08L585.879 1270.22L589.171 1271.04C591.812 1271.73 592.422 1272.01 592.219 1272.54C592.138 1272.91 590.187 1280.67 587.952 1289.81C585.716 1299 583.807 1306.56 583.725 1306.64C583.4 1306.96 577.182 1305.38 576.776 1304.89C576.532 1304.61 574.5 1298.71 572.305 1291.76C570.07 1284.81 568.119 1279.37 567.997 1279.61C567.876 1279.9 566.616 1284.89 565.193 1290.75C563.364 1298.18 562.43 1301.44 562.064 1301.44C561.739 1301.44 560.235 1301.15 558.65 1300.78C556.334 1300.26 555.846 1300.01 556.009 1299.49C556.131 1299.08 557.959 1291.56 560.113 1282.74C562.267 1273.92 564.096 1266.36 564.218 1265.96C564.502 1265.1 565.071 1265.1 568.607 1266ZM918.478 1271.12C921.971 1272.58 924.044 1275.67 924.37 1279.94C924.654 1284 923.517 1286.81 918.966 1293.71C916.851 1296.88 915.104 1299.65 915.104 1299.85C915.104 1300.05 915.51 1300.13 916.04 1300.01C916.528 1299.89 919.128 1299.36 921.81 1298.79C924.492 1298.22 927.092 1297.7 927.54 1297.57C928.311 1297.41 928.476 1297.66 929.043 1300.54C929.369 1302.25 929.613 1303.71 929.613 1303.71C929.491 1303.83 906.366 1308.75 906.043 1308.75C905.595 1308.75 905.716 1306.23 906.204 1303.79C906.814 1300.91 908.643 1297.37 912.666 1291.27C914.534 1288.47 916.363 1285.46 916.772 1284.57C918.558 1280.63 916.772 1276.24 913.358 1276.24C910.267 1276.24 908.194 1278.35 908.194 1281.52C908.194 1282.94 908.073 1283.15 907.219 1283.15C906.731 1283.15 905.147 1283.27 903.726 1283.43L901.166 1283.68L901.367 1280.75C901.733 1275.67 904.701 1272.34 910.145 1270.87C913.114 1270.1 916.241 1270.18 918.478 1271.12ZM617.009 1276.89C619.244 1277.21 621.073 1277.54 621.114 1277.58C621.155 1277.62 621.642 1282.58 622.292 1288.63C622.901 1294.65 623.511 1300.22 623.675 1300.95C623.877 1302.17 624.407 1301.15 628.796 1290.87C631.478 1284.61 633.834 1279.49 634.078 1279.49C635.054 1279.53 644.158 1281.08 644.32 1281.28C644.524 1281.48 639.321 1316.47 639.077 1316.68C638.915 1316.84 632.655 1315.82 632.493 1315.62C632.454 1315.54 633.264 1309.81 634.322 1302.86C635.419 1295.91 636.273 1290.02 636.19 1289.69C636.151 1289.41 633.752 1294.85 630.826 1301.8C624.895 1316.02 625.87 1314.85 621.033 1313.99L618.513 1313.55L618.269 1311.88C618.147 1310.95 617.538 1304.65 616.928 1297.9C616.318 1291.15 615.79 1285.67 615.709 1285.71C615.668 1285.79 614.815 1291.19 613.799 1297.78C611.401 1313.46 611.604 1312.41 610.832 1312.41C610.466 1312.41 609.003 1312.2 607.581 1311.96C605.386 1311.56 605.021 1311.39 605.021 1310.62C605.021 1309.73 609.735 1278.39 610.1 1276.73C610.304 1275.95 610.507 1275.83 611.645 1276.03C612.376 1276.16 614.774 1276.52 617.009 1276.89ZM742.304 1280.55C743.075 1280.79 743.197 1281.08 743.197 1282.98V1285.18H735.312C730.965 1285.18 727.308 1285.06 727.225 1284.85C727.143 1284.69 727.143 1283.59 727.265 1282.42L727.429 1280.3H734.379C738.238 1280.3 741.773 1280.42 742.304 1280.55ZM852.925 1299.28C857.963 1308.39 862.069 1315.98 862.069 1316.23C862.069 1316.47 860.972 1316.8 859.631 1316.96C858.29 1317.12 856.622 1317.33 855.891 1317.45C854.592 1317.65 854.55 1317.57 852.642 1313.79C851.178 1310.9 850.487 1309.97 849.877 1309.97C848.576 1309.97 836.548 1311.56 836.344 1311.76C836.262 1311.88 835.774 1313.71 835.247 1315.86C834.759 1317.97 834.271 1319.8 834.189 1319.89C834.027 1320.05 828.053 1320.94 827.118 1320.94C826.752 1320.94 827.971 1315.54 831.263 1302.37C833.823 1292.13 835.978 1283.72 836.06 1283.64C836.304 1283.39 840.285 1282.86 842.156 1282.78L843.821 1282.74L852.925 1299.28ZM669.152 1283.76C673.742 1284.85 676.955 1287.09 679.311 1290.79C681.1 1293.55 681.831 1296.56 681.831 1300.83C681.831 1309.73 677.848 1316.8 671.346 1319.4C668.054 1320.7 661.632 1320.7 657.853 1319.4C650.699 1316.92 646.88 1311.23 646.88 1303.1C646.88 1299.2 647.895 1294.49 649.318 1291.68C651.147 1288.1 654.927 1284.93 658.788 1283.76C661.105 1283.03 666.021 1283.03 669.152 1283.76ZM821.022 1297.45C821.835 1310.42 821.753 1314.32 820.534 1316.68C818.217 1321.1 813.139 1323.22 805.538 1322.93C798.954 1322.65 795.135 1319.76 793.833 1314.07C793.266 1311.68 791.316 1287.7 791.639 1287.42C791.721 1287.37 793.346 1287.17 795.296 1287.01L798.792 1286.72L799.036 1289.32C799.158 1290.75 799.564 1295.99 799.89 1301.03C800.216 1306.07 800.621 1310.7 800.743 1311.39C801.475 1314.93 803.465 1316.47 807.327 1316.47C812.408 1316.47 814.316 1314.64 814.276 1309.77C814.276 1308.18 813.95 1302.25 813.545 1296.56C813.139 1290.87 812.896 1286.11 812.975 1285.99C813.341 1285.59 819.802 1285.38 820.046 1285.79C820.168 1285.99 820.616 1291.27 821.022 1297.45ZM697.394 1286.6C701.826 1286.93 705.929 1287.33 706.538 1287.45C709.913 1288.27 713.043 1291.19 713.936 1294.32C714.75 1297.17 714.302 1301.76 713.043 1303.91C711.659 1306.27 710.483 1307.29 708.084 1308.39C706.337 1309.16 705.402 1309.24 700.564 1309.2C697.516 1309.16 694.673 1309.07 694.224 1309.03C693.453 1308.95 693.371 1309.32 692.926 1315.66C692.682 1319.36 692.478 1322.36 692.438 1322.36C691.341 1322.45 685.611 1322 685.407 1321.84C685.245 1321.67 685.65 1313.95 686.3 1304.69C686.952 1295.42 687.519 1287.42 687.519 1286.88C687.519 1285.79 686.992 1285.83 697.394 1286.6ZM739.213 1288.06C749.171 1290.14 754.292 1300.05 751.649 1312.2C750.024 1319.89 743.319 1325.01 734.867 1325.01C722.144 1325.01 714.994 1314.52 718.081 1300.42C718.974 1296.19 722.022 1291.88 725.518 1289.85C728.932 1287.82 734.54 1287.09 739.213 1288.06ZM785.098 1288.51C785.098 1289.04 785.421 1297.05 785.829 1306.31C786.235 1315.58 786.478 1323.3 786.396 1323.46C786.317 1323.67 784.61 1323.79 782.577 1323.79H778.959V1320.41C778.959 1318.54 778.837 1315.05 778.676 1312.69L778.432 1308.34H775.954C774.57 1308.34 771.4 1308.46 768.882 1308.63L764.329 1308.87L764.533 1311.35C764.615 1312.73 764.816 1316.27 764.938 1319.19L765.182 1324.6H761.524H757.867L757.666 1322.45C757.379 1319.89 756.203 1289.12 756.364 1288.96C756.526 1288.8 763.518 1288.31 763.557 1288.47C763.557 1288.55 763.719 1291.68 763.884 1295.46C764.045 1299.2 764.289 1302.33 764.371 1302.41C764.451 1302.49 767.62 1302.49 771.4 1302.37L778.27 1302.12L777.984 1295.1C777.661 1287.05 777.252 1287.74 782.129 1287.66C784.894 1287.62 785.055 1287.66 785.098 1288.51ZM888.404 1298.67C888.73 1300.54 888.931 1302.12 888.852 1302.21C888.565 1302.49 876.334 1304.69 875.886 1304.52C875.48 1304.4 874.221 1298.27 874.545 1297.98C874.627 1297.9 877.513 1297.33 880.967 1296.64C884.42 1295.99 887.389 1295.42 887.511 1295.38C887.672 1295.38 888.038 1296.84 888.404 1298.67Z" fill="#072C2A"/>
<path d="M1032.76 1236.45C1030.32 1237.55 1028.12 1238.65 1027.92 1238.85C1027.51 1239.26 1030.85 1246.94 1031.46 1246.98C1032.07 1246.98 1040.89 1242.43 1041.78 1241.61C1043.49 1240.03 1043.32 1237.35 1041.41 1235.27C1039.99 1233.81 1037.92 1234.09 1032.76 1236.45Z" fill="#072C2A"/>
<path d="M1003.13 1249.17C1000.94 1249.94 998.986 1250.72 998.824 1250.92C998.659 1251.08 999.312 1253.23 1000.29 1255.72C1002.28 1260.79 1001.83 1260.59 1006.54 1258.64C1010.53 1257.01 1012.24 1255.35 1012.24 1253.11C1012.24 1250.23 1011.02 1248.6 1008.37 1248.04C1007.52 1247.87 1005.94 1248.2 1003.13 1249.17Z" fill="#072C2A"/>
<path d="M538.452 1273.39L534.266 1278.84L538.452 1280.18C540.769 1280.91 542.841 1281.52 543.085 1281.52C543.573 1281.52 543.491 1277.91 542.882 1270.96L542.638 1267.91L538.452 1273.39Z" fill="#072C2A"/>
<path d="M840.611 1292.58C839.23 1298.14 837.847 1304.77 838.011 1304.93C838.133 1305.05 839.84 1304.93 841.791 1304.69C848.048 1303.91 847.765 1304.73 844.147 1297.86C842.44 1294.57 840.977 1291.84 840.937 1291.76C840.895 1291.68 840.733 1292.05 840.611 1292.58Z" fill="#072C2A"/>
<path d="M660.495 1290.34C657.161 1292.09 655.414 1295.05 654.6 1300.3C653.869 1305.34 654.765 1308.83 657.527 1311.47C659.355 1313.26 661.428 1314.03 664.275 1314.03C668.664 1314.03 672.157 1311.19 673.58 1306.39C674.394 1303.55 674.516 1297.74 673.742 1295.62C673.01 1293.51 671.02 1291.32 669.03 1290.42C666.957 1289.45 662.242 1289.41 660.495 1290.34Z" fill="#072C2A"/>
<path d="M694.225 1297.41C694.063 1300.09 694.063 1302.41 694.185 1302.53C694.307 1302.69 696.419 1302.86 698.818 1302.98C702.881 1303.14 703.247 1303.06 704.588 1302.17C706.377 1300.95 707.23 1298.67 706.621 1296.76C705.728 1294.04 703.777 1293.19 697.437 1292.74L694.511 1292.54L694.225 1297.41Z" fill="#072C2A"/>
<path d="M729.99 1295.3C727.509 1296.76 726.372 1298.43 725.479 1301.84C724.747 1304.73 724.869 1309.36 725.762 1312.12C726.454 1314.2 728.771 1316.84 730.761 1317.73C734.257 1319.32 739.173 1318.42 741.652 1315.82C743.846 1313.46 744.578 1311.03 744.62 1306.11C744.62 1301.92 744.538 1301.48 743.401 1299.2C742.548 1297.49 741.652 1296.39 740.432 1295.54C738.847 1294.49 738.238 1294.32 735.354 1294.2C732.264 1294.08 731.858 1294.16 729.99 1295.3Z" fill="#072C2A"/>
</g>
<defs>
<clipPath id="clip0_78_69">
<rect width="863.195" height="1200" fill="white" transform="translate(318 150)"/>
</clipPath>
</defs>
</svg>
