<svg width="250" height="250" viewBox="0 0 250 250" fill="none" xmlns="http://www.w3.org/2000/svg">
<path d="M177.084 20.8335H72.9168C44.152 20.8335 20.8334 44.1521 20.8334 72.9169V177.084C20.8334 205.849 44.152 229.166 72.9168 229.166H177.084C205.849 229.166 229.166 205.849 229.166 177.084V72.9169C229.166 44.1521 205.849 20.8335 177.084 20.8335Z" stroke="#FBFDF7" stroke-width="25" stroke-linecap="round" stroke-linejoin="round"/>
<path d="M166.666 118.438C167.953 127.106 166.471 135.961 162.435 143.74C158.399 151.519 152.011 157.828 144.184 161.768C136.355 165.708 127.484 167.079 118.831 165.688C110.178 164.295 102.185 160.209 95.9878 154.013C89.7908 147.815 85.7056 139.821 84.3132 131.169C82.9208 122.516 84.2923 113.645 88.2326 105.817C92.1727 97.9883 98.4811 91.6016 106.26 87.5653C114.039 83.5288 122.893 82.048 131.563 83.3335C140.405 84.6449 148.593 88.7655 154.914 95.0868C161.235 101.408 165.355 109.595 166.666 118.438Z" stroke="#FBFDF7" stroke-width="25" stroke-linecap="round" stroke-linejoin="round"/>
<path d="M182.291 67.708H182.396" stroke="#FBFDF7" stroke-width="25" stroke-linecap="round" stroke-linejoin="round"/>
</svg>
