<svg width="500" height="500" viewBox="0 0 500 500" fill="none" xmlns="http://www.w3.org/2000/svg">
<path d="M475 250.838C475 126.098 374.277 25 250 25C125.723 25 25 126.098 25 250.838C25 356.7 97.6856 445.623 195.684 470.06V319.825H149.277V250.838H195.684V221.109C195.684 144.271 230.313 108.631 305.547 108.631C319.785 108.631 344.395 111.454 354.502 114.277V176.735C349.229 176.206 340 175.853 328.486 175.853C291.572 175.853 277.334 189.879 277.334 226.313V250.838H350.811L338.154 319.825H277.246V475C388.691 461.503 475 366.315 475 250.838Z" fill="#F2F2F2"/>
</svg>
