<svg width="500" height="500" viewBox="0 0 500 500" fill="none" xmlns="http://www.w3.org/2000/svg">
<path d="M250.05 134.626C234.889 134.586 219.869 137.534 205.847 143.3C191.825 149.067 179.076 157.54 168.327 168.234C146.62 189.834 134.38 219.173 134.3 249.799C134.22 280.425 146.307 309.828 167.901 331.54C189.496 353.253 218.829 365.495 249.448 365.575C280.067 365.655 309.463 353.566 331.171 331.966C352.878 310.367 365.118 281.027 365.198 250.402C365.278 219.776 353.191 190.373 331.597 168.66C310.002 146.948 280.669 134.706 250.05 134.626ZM249.448 175.192C259.283 175.153 269.029 177.051 278.13 180.779C287.232 184.507 295.51 189.992 302.492 196.919C309.474 203.847 315.024 212.083 318.824 221.156C322.624 230.229 324.601 239.962 324.64 249.799C324.68 259.636 322.782 269.385 319.055 278.488C315.328 287.592 309.844 295.871 302.918 302.855C295.992 309.839 287.758 315.39 278.687 319.191C269.616 322.992 259.885 324.969 250.05 325.008C240.215 325.048 230.469 323.15 221.368 319.422C212.266 315.694 203.988 310.209 197.006 303.281C190.024 296.353 184.474 288.118 180.674 279.045C176.874 269.972 174.897 260.239 174.858 250.402C174.818 240.565 176.716 230.816 180.443 221.713C184.17 212.609 189.654 204.329 196.58 197.345C203.506 190.362 211.74 184.811 220.811 181.01C229.882 177.209 239.613 175.232 249.448 175.192ZM343.213 129.906C343.213 122.769 346.047 115.924 351.093 110.878C356.138 105.831 362.982 102.996 370.117 102.996C377.253 102.996 384.096 105.831 389.142 110.878C394.187 115.924 397.022 122.769 397.022 129.906C397.022 137.043 394.187 143.888 389.142 148.935C384.096 153.982 377.253 156.817 370.117 156.817C362.982 156.817 356.138 153.982 351.093 148.935C346.047 143.888 343.213 137.043 343.213 129.906ZM473.419 157.219C471.712 121.17 463.48 89.2391 437.078 62.9309C410.775 36.6228 378.851 28.3889 342.811 26.5815C305.667 24.4728 194.334 24.4728 157.189 26.5815C121.249 28.2885 89.3252 36.5224 62.9225 62.8305C36.5198 89.1387 28.3882 121.07 26.5811 157.118C24.473 194.271 24.473 305.629 26.5811 342.781C28.2878 378.83 36.5198 410.761 62.9225 437.069C89.3252 463.377 121.149 471.611 157.189 473.418C194.334 475.527 305.667 475.527 342.811 473.418C378.851 471.711 410.775 463.478 437.078 437.069C463.38 410.761 471.612 378.83 473.419 342.781C475.527 305.629 475.527 194.371 473.419 157.219ZM425.432 382.645C417.602 402.326 402.443 417.489 382.666 425.421C353.051 437.169 282.777 434.458 250.05 434.458C217.323 434.458 146.949 437.069 117.434 425.421C97.7579 417.589 82.599 402.427 74.6682 382.645C62.9225 353.024 65.633 282.735 65.633 250C65.633 217.265 63.0229 146.876 74.6682 117.355C82.4986 97.6738 97.6576 82.5114 117.434 74.5788C147.05 62.8305 217.323 65.5417 250.05 65.5417C282.777 65.5417 353.151 62.9309 382.666 74.5788C402.342 82.411 417.501 97.5734 425.432 117.355C437.178 146.976 434.467 217.265 434.467 250C434.467 282.735 437.178 353.124 425.432 382.645Z" fill="#F2F2F2"/>
</svg>
