<svg width="500" height="500" viewBox="0 0 500 500" fill="none" xmlns="http://www.w3.org/2000/svg">
<path d="M392.216 116.236C389.97 133.731 386.586 150.905 379.176 167.111C378.306 169.013 379.014 172.275 380.088 174.332C389.149 191.688 398.465 208.911 408.071 226.617C408.886 227.804 409.335 228.547 409.783 229.29C409.783 229.29 409.816 229.217 409.873 229.64C414.377 239.13 421.203 247.26 422 259.531C414.444 256.176 408.229 253.416 402.014 250.655C410.123 262.174 415.041 274.505 416.412 288.101C416.898 292.921 416.094 297.872 415.879 302.763C414.721 302.547 413.563 302.331 412.002 301.409C405.806 295.321 400.014 289.94 394.123 284.302C393.865 284.436 393.706 284.827 393.728 285.631C397.272 296.392 400.636 306.738 403.999 317.085C406.056 325.677 408.112 334.269 410.169 342.86C409.445 343.455 408.722 344.05 407.998 344.645C399.386 340.36 390.774 336.074 382.249 331.831C380.783 339.7 379.786 348.02 377.634 356.03C371.951 377.18 358.591 393.686 344.389 409.662C333.479 421.936 320.598 431.564 306.657 440.101C287.903 451.587 269.505 463.653 251.691 475C228.136 459.95 204.136 444.8 180.375 429.284C175.397 426.034 171.297 421.434 166.223 416.969C165.221 416.193 164.789 415.902 164.358 415.612C163.829 414.963 163.3 414.313 162.249 413.218C159.266 410.429 156.807 408.086 154.348 405.744C154.348 405.744 154.31 405.419 153.953 405.089C150.417 401.545 147.239 398.331 144.061 395.118C144.061 395.118 144.166 395.238 144.178 394.789C143.058 392.961 141.927 391.582 140.796 390.203C140.796 390.203 140.521 390.238 140.57 389.978C140.122 389.144 139.625 388.571 139.128 387.998C139.128 387.998 139.087 388.154 139.013 387.771C135.76 382.428 132.582 377.467 129.403 372.507C129.403 372.507 129.353 372.556 129.301 372.119C123.101 359.399 119.461 346.401 118.508 331.691C114.329 334.254 110.848 336.389 107.366 338.524C107.366 338.524 107.515 338.56 107.072 338.562C101.995 340.486 97.3603 342.408 91.0775 345.013C93.4093 323.233 101.393 305.083 107.232 286.135C107.683 285.177 107.917 284.403 108.152 283.628C107.887 283.484 107.622 283.341 107.357 283.197C106.831 283.81 106.305 284.424 105.476 285.301C99.9886 290.457 94.8044 295.349 89.6202 300.242C88.1203 301.049 86.6204 301.855 83.8624 303.339C83.6295 284.384 87.696 267.938 98.5639 252.627C98.4959 251.814 97.9885 251.582 97.4811 251.35C91.6236 254.023 85.7661 256.696 79.9086 259.369C79.2724 258.794 78.6362 258.219 78 257.643C79.5941 253.104 80.662 248.289 82.8701 244.072C94.5716 221.725 106.502 199.498 118.49 177.303C121.385 171.944 121.855 167.502 119.147 161.296C107.74 135.162 105.706 107.477 108.357 79.3761C109.908 62.9313 113.403 46.9265 121.462 32.2533C125.418 25.05 128.816 23.0475 136.08 26.9862C146.019 32.3755 155.736 38.6134 164.359 45.898C179.117 58.3652 191.474 73.2087 201.813 89.5959C203.773 92.7025 205.373 93.1714 208.988 92.1056C237.766 83.621 266.476 82.5044 295.095 94.363C307.277 75.2699 321.458 57.9784 339.099 42.6828C341.424 40.6664 343.21 39.1709 344.996 37.6754C344.996 37.6754 344.899 37.671 345.288 37.5662C348.726 35.2515 351.776 33.0416 354.827 30.8318C354.827 30.8318 354.747 30.6606 355.068 30.7581C355.987 30.3782 356.585 29.9007 357.182 29.4233C357.182 29.4233 356.998 29.4342 357.423 29.4612C359.216 28.6826 360.585 27.8769 361.953 27.0712C361.953 27.0712 361.913 27.308 362.473 27.1933C368.872 24.9595 374.322 24.6868 378.516 30.3563C378.516 30.3563 378.52 30.3678 378.617 30.7978C392.655 58.061 394.507 86.8187 392.216 116.236Z" fill="#2C2C2C"/>
</svg>
