<svg width="500" height="500" viewBox="0 0 500 500" fill="none" xmlns="http://www.w3.org/2000/svg">
<path d="M337.682 26.6131C341.872 22.1826 347.291 23.5809 352.009 24.4233C368.889 27.438 376.909 41.8304 370.73 58.4641C365.172 67.2269 360.038 75.3868 354.903 83.5467C354.903 83.5467 354.993 83.5461 354.651 83.7444C353.503 85.3548 352.697 86.7669 351.892 88.179C351.892 88.179 352.143 88.398 351.886 88.3915C351.448 88.8467 351.267 89.3084 351.086 89.77C351.086 89.77 351.234 89.7346 350.878 89.9027C349.473 92.0002 348.424 93.9297 347.375 95.8591C347.375 95.8591 347.475 95.8575 347.145 96.035C346.031 97.5634 345.247 98.9145 344.464 100.265C344.464 100.265 344.21 100.385 344.032 100.834C342.823 103.001 341.793 104.72 340.763 106.438C340.763 106.438 340.832 106.785 340.638 106.865C340.26 107.406 340.075 107.867 339.891 108.329C339.891 108.329 340.065 108.289 339.714 108.443C338.567 110.008 337.772 111.42 336.976 112.831C336.976 112.831 336.986 112.935 336.746 113.196C334.149 117.169 331.793 120.881 329.183 124.822C328.787 125.484 328.645 125.916 328.534 126.385C328.564 126.422 328.528 126.51 328.152 126.585C327.536 127.323 327.296 127.986 326.881 128.415C326.707 128.181 327.067 128.648 326.603 128.608C324.281 132.208 322.422 135.848 320.536 139.454C320.508 139.42 320.588 139.452 320.144 139.535C319.243 140.905 318.786 142.191 318.223 143.344C318.116 143.211 318.373 143.436 317.909 143.454C316.798 145.063 316.151 146.654 315.48 148.586C315.331 149.365 315.204 149.803 315.077 150.242C315.077 150.242 315.202 150.243 314.966 150.275C314.729 150.307 314.276 150.494 313.897 150.555C311.366 154.813 309.214 159.009 307.019 163.2C306.977 163.196 307.062 163.212 306.629 163.28C299.336 166.785 299.406 173.354 298.825 179.648C298.814 179.663 298.793 179.691 298.354 179.69C294.59 183.552 290.944 183.928 286.16 181.962C281.49 180.042 276.371 179.004 271.349 178.198C263.561 176.947 255.712 176.399 248.201 181.213C247.229 181.359 246.66 181.357 245.756 181.074C239.672 182.033 232.843 180.348 229.032 186.772C229.031 186.699 229.173 186.727 228.667 186.634C226.723 185.27 225.162 184.112 223.891 182.693C222.931 181.623 222.342 180.219 221.489 178.501C221.419 177.093 221.448 176.148 221.762 174.798C222.162 171.542 222.699 168.634 222.319 165.851C220.459 152.193 218.739 138.498 216.251 124.947C212.046 102.038 207.35 79.2181 202.696 56.3943C202.291 54.4093 200.663 52.6736 199.6 50.6902C199.596 50.5583 199.857 50.5207 199.972 49.9349C200.92 42.5676 201.752 35.7862 202.603 29.0449C202.623 29.0851 202.534 29.098 202.807 28.8876C203.355 28.314 203.631 27.9507 203.973 27.3233C204.263 26.7302 204.575 26.5699 205.449 26.5447C214.626 21.2183 223.692 23.7925 232.638 25.2852C232.57 25.3038 232.544 25.165 232.762 25.4509C233.373 26.004 233.767 26.2711 234.401 26.5919C234.954 26.8337 235.106 27.1102 235.07 27.9558C236.61 31.9663 238.177 35.496 239.825 39.2987C239.907 39.5718 239.961 40.1396 239.94 40.7032C241.913 54.5502 243.906 67.8336 245.986 81.3898C246.073 81.6625 246.147 82.2301 246.106 82.7055C247.207 88.3906 248.349 93.6002 249.508 99.1542C249.297 99.5242 249.069 99.55 248.78 100.129C249.836 112.371 250.756 124.084 252.22 135.729C252.538 138.257 254.811 140.538 256.138 142.927C256.091 142.921 256.114 142.83 256.178 143.212C256.667 144.205 257.091 144.816 257.842 145.589C259.099 146.519 260.03 147.287 261.232 148.307C262.294 148.109 263.085 147.659 263.933 147.173C263.991 147.138 264.105 147.209 264.433 147.216C265.127 147.004 265.494 146.783 265.848 146.622C265.835 146.681 265.719 146.648 266.103 146.58C267.046 146.016 267.604 145.52 268.163 145.108C268.163 145.191 267.999 145.164 268.441 145.195C269.93 144.045 270.977 142.864 272.045 141.73C272.064 141.776 271.977 141.726 272.378 141.737C277.924 139.724 280.955 136.272 280.442 130.464C280.452 130.509 280.431 130.42 280.88 130.373C281.862 129.077 282.395 127.828 282.944 126.672C282.961 126.766 282.771 126.775 283.108 126.568C283.743 125.659 284.04 124.958 284.363 124.293C284.389 124.328 284.313 124.283 284.736 124.24C288.665 119.06 292.512 114.118 295.566 108.726C297.982 104.461 299.424 99.6442 301.299 95.0725C301.438 94.8029 301.576 94.5333 302.301 93.8082C307.238 87.7308 312.5 82.6002 312.883 74.8362C312.883 74.8362 312.922 74.9124 313.268 74.7379C316.271 69.3122 318.927 64.0611 321.584 58.81C321.584 58.81 321.621 58.8454 322.033 58.7706C323.329 57.915 324.54 57.3032 325.045 56.3264C328.949 48.7834 332.847 41.2305 336.44 33.5376C337.399 31.4841 337.297 28.9347 337.682 26.6131Z" fill="#F2F2F2"/>
<path d="M206.166 468.231C205.579 467.853 205.33 467.551 204.748 467.165C203.614 466.068 202.737 465.118 201.455 463.884C201.051 463.6 201.154 463.59 201.112 463.591C201.465 463.151 202.242 462.367 202.199 462.319C197.377 456.947 200.663 450.936 201.071 445.306C202.05 431.79 203.413 418.297 204.89 404.824C205.97 394.96 207.583 385.154 208.745 375.297C209.266 370.879 209.217 366.395 209.513 361.947C209.754 358.323 211.439 357.353 215.25 357.779C226.825 359.072 238.464 359.797 251.17 360.833C251.497 362.107 252.707 364.409 252.548 366.611C251.678 378.671 250.31 390.695 249.444 402.755C248.957 409.531 249.316 416.365 248.914 423.15C248.521 429.784 247.612 436.386 247.013 443.01C246.907 444.181 247.21 445.389 247.624 446.925C247.875 447.819 247.824 448.368 247.331 449.607C246.194 454.067 245.398 457.824 244.943 461.623C244.891 462.062 246.735 462.728 247.699 463.289C247.571 463.657 247.443 464.026 246.997 464.487C245.527 464.974 243.853 465.012 243.3 465.818C235.65 476.985 225.183 472.894 215.167 471.14C213.565 470.859 212.033 470.173 210.02 469.589C208.574 469.084 207.578 468.663 206.166 468.231Z" fill="#F2F2F2"/>
<path d="M300.851 202.452C301.762 202.738 302.342 203.128 303.277 203.571C307.664 206.469 311.359 210.116 315.801 211.984C324.246 215.537 325.448 217.094 322.893 225.848C322.612 226.809 322.543 227.831 322.429 229.308C322.483 229.792 322.446 229.707 322.012 229.707C317.128 232.364 311.453 233.584 309.901 239.648C309.901 239.648 309.851 240.109 310.089 240.601C310.699 241.354 311.071 241.617 311.442 241.879C311.442 241.879 311.163 241.88 311.4 241.986C312.062 242.2 312.487 242.308 312.912 242.415C312.912 242.415 313.041 242.402 313.033 242.914C314.545 244.515 316.065 245.604 317.586 246.692C317.586 246.692 317.479 246.725 317.423 247.191C318.112 254.864 318.38 261.855 311.618 266.93C310.543 267.737 310.427 269.82 309.868 271.313C309.495 271.611 309.123 271.91 308.431 272.892C307.897 280.425 307.682 287.274 307.467 294.123C307.467 294.123 307.435 294.027 307.227 294.245C306.808 294.87 306.596 295.277 306.385 295.684C306.385 295.684 306.401 295.529 305.994 295.484C304.646 296.727 303.706 298.014 302.766 299.301C302.766 299.301 302.732 299.292 302.737 299.309C301.607 300.359 299.528 301.369 299.5 302.431C299.389 306.726 299.91 311.038 300.325 315.91C300.451 316.477 300.403 316.418 299.974 316.597C298.968 318.377 298.39 319.978 297.812 321.579C297.812 321.579 297.761 321.396 297.574 321.6C297.231 322.235 297.073 322.666 296.916 323.097C296.916 323.097 296.71 323.185 296.394 323.161C295.317 324.188 294.556 325.238 293.794 326.289C293.428 326.684 293.063 327.079 291.955 327.56C290.58 328.229 289.946 328.811 289.313 329.393C289.313 329.393 289.396 329.252 288.936 329.194C287.806 329.515 287.137 329.894 286.467 330.272C286.467 330.272 286.455 330.173 286.487 330.212C285.239 331.555 283.184 332.678 282.831 334.197C281.929 338.076 281.786 342.13 281.334 346.638C279.722 348 277.811 348.522 276.565 349.731C271.912 354.243 266.31 354.8 260.215 354.821C257.046 354.831 253.881 356.431 250.576 357.746C249.878 358.249 249.32 358.319 248.193 357.881C245.946 356.995 244.283 356.414 242.586 356.282C239.778 356.065 236.906 356.431 234.134 356.038C219.828 354.015 205.547 351.815 191.25 349.729C190.257 349.584 189.202 349.869 188.176 349.954C188.176 349.954 188.353 349.912 188.178 349.639C184.325 347.957 180.646 346.547 176.968 345.137C176.968 345.137 177.15 345.098 176.961 344.832C176.057 344.275 175.342 343.984 174.627 343.693C174.627 343.693 174.673 343.636 174.657 343.672C168.766 333.343 160.437 327.052 147.972 327.419C143.24 327.558 138.374 328.069 133.815 327.17C131.215 326.657 127.316 323.82 127.106 321.72C126.376 314.41 126.645 306.932 127.307 299.587C127.531 297.099 130.049 294.818 130.528 292.624C130.866 286.662 131.757 280.666 131.388 274.748C131.013 268.725 134.286 262.798 131.371 256.399C131.68 254.114 132.226 252.241 133.023 249.603C133.896 245.178 134.518 241.518 135.14 237.859C135.133 237.472 135.3 237.185 136.408 236.992C143.053 236.589 148.932 236.207 154.808 235.793C164.647 235.1 171.968 228.989 179.666 223.888C182.164 222.234 183.776 219.243 185.793 216.864C185.793 216.864 185.834 217.051 186.046 216.908C186.592 216.462 186.926 216.158 187.259 215.855C187.259 215.855 187.252 215.928 187.221 215.908C188.393 215.374 189.596 214.861 190.919 213.945C192.131 212.803 193.222 212.064 194.448 210.93C194.643 210.144 194.863 209.894 195.951 209.747C197.604 208.821 198.548 207.933 199.492 207.045C199.492 207.045 199.494 207.142 199.829 207.089C200.586 206.479 201.008 205.921 201.431 205.363C201.431 205.363 201.496 205.256 202.003 205.427C203.633 204.536 204.755 203.473 205.878 202.411C205.878 202.411 205.876 202.348 205.902 202.366C206.576 202.143 207.225 201.902 208.111 201.407C210.332 200.178 212.316 199.204 214.41 197.817C216.615 196.749 218.808 196.308 220.788 195.404C236.222 188.354 251.824 183.392 268.915 189.61C272.1 190.768 275.726 190.712 279.64 191.216C281.094 191.631 282.055 192.046 283.427 192.465C286.817 194.127 289.799 195.784 293.246 197.447C295.981 199.154 298.25 200.855 300.851 202.452Z" fill="#F2F2F2"/>
</svg>
