<svg width="500" height="500" viewBox="0 0 500 500" fill="none" xmlns="http://www.w3.org/2000/svg">
<path fill-rule="evenodd" clip-rule="evenodd" d="M249.749 30.2032C249.447 31.6891 249.145 33.1761 248.723 35.1647C248.14 37.9978 247.769 40.2599 247.473 42.0697C246.888 45.6362 246.592 47.4468 245.527 48.4085C244.431 49.3992 242.519 49.4902 238.639 49.6749C237.141 49.7463 235.35 49.8315 233.199 49.9879C212.308 51.5067 191.892 55.4272 172.743 63.6991C95.6245 97.0115 52.3201 154.848 46.8321 239.45C46.5686 243.512 45.2592 245.309 41.4821 246.162C38.076 246.932 34.7101 247.878 30.829 248.97C29.0173 249.48 27.0928 250.021 25 250.591C27.1593 251.082 29.1293 251.54 30.9719 251.969C34.918 252.887 38.2792 253.669 41.6615 254.347C45.1015 255.035 46.8114 256.461 46.9804 260.411C47.2813 267.445 48.1703 274.477 49.191 281.454C61.5674 366.054 128.616 439.857 228.515 450.24L229.658 450.359C246.359 452.086 246.468 452.098 249.873 469.314C249.901 469.455 250.144 469.554 250.493 469.696C250.693 469.778 250.928 469.874 251.177 470L255.221 452.529C259.322 451.968 263.335 451.482 267.282 451.004L267.286 451.003L267.29 451.003C275.614 449.994 283.638 449.022 291.545 447.462C377.196 430.561 441.572 361.884 452.758 275.795C453.03 273.704 453.056 271.425 453.083 269.153C453.139 264.334 453.195 259.55 455.59 256.687C457.95 253.866 462.677 253.019 467.814 252.099C470.186 251.675 472.646 251.234 475 250.577C473.631 250.186 472.38 249.776 471.203 249.39C468.826 248.611 466.753 247.932 464.633 247.712C456.948 246.914 454.453 243.108 453.862 235.326C448.638 166.451 415.326 114.555 356.703 78.8092C327.965 61.2854 296.484 51.4496 262.676 50.0537C256.979 49.8184 254.388 47.8513 253.685 42.2849C253.322 39.4134 252.554 36.5931 251.785 33.7728L251.785 33.7706C251.443 32.5152 251.101 31.2599 250.795 30L249.751 30.1938L249.749 30.2032ZM354.173 359.83C356.102 360.78 358.031 361.73 359.949 362.698C360.856 362.937 361.198 362.606 361.198 362.606C359.592 358.936 357.831 355.371 356.079 351.822C354.308 348.236 352.545 344.665 350.957 341.02C350.07 338.982 350.263 335.302 351.574 333.662C365.182 316.633 374.209 297.498 379.405 276.408C379.862 274.553 381.84 272.08 383.537 271.676C398.576 268.088 413.668 264.717 428.794 261.339L428.805 261.336C432.873 260.428 436.943 259.519 441.016 258.604C442.933 335.41 373.867 434.784 257.441 438.768C258.302 435.331 259.154 431.911 260.003 428.504L260.004 428.502C261.976 420.586 263.932 412.737 265.939 404.9C266.549 402.519 266.984 399.975 267.419 397.426C268.465 391.294 269.516 385.14 273.027 381.182C275.808 378.046 280.675 376.907 285.672 375.737C288.932 374.974 292.247 374.198 295.074 372.847C307.36 366.974 319.323 360.364 331.073 353.47C334.558 351.426 336.908 350.732 340.502 352.768C344.961 355.294 349.567 357.562 354.173 359.83ZM361.443 141.696C361.597 140.68 361.389 140.535 361.181 140.391C357.455 141.854 353.929 143.552 350.444 145.229C347.309 146.738 344.207 148.231 341.024 149.523C338.784 150.432 334.878 150.006 332.98 148.56C316.747 136.195 298.917 127.304 278.989 122.832C274.843 121.901 272.686 120.101 271.609 115.829C268.354 102.931 264.9 90.0826 261.338 76.8332L261.336 76.827L261.332 76.8095C260.006 71.8786 258.665 66.892 257.315 61.8265C309.078 65.0568 352.72 83.9327 389.098 119.547C426.503 156.167 442.847 207.28 441.307 242.287C440.212 242.066 439.125 241.856 438.043 241.646C435.718 241.196 433.422 240.752 431.147 240.218C426.114 239.036 421.086 237.835 416.058 236.633L416.051 236.631L416.049 236.631L416.048 236.63C405.62 234.138 395.191 231.645 384.722 229.336C380.952 228.504 379.036 226.993 378.258 223.17C373.957 202.044 365.047 183.073 351.455 166.253C350.362 164.902 350.192 161.727 351.006 160.109C353.316 155.523 355.929 151.089 358.541 146.655C359.514 145.005 360.486 143.354 361.443 141.696ZM140.372 360.098C140.175 361.088 140.366 361.228 140.556 361.368C143.506 360.25 146.402 358.695 149.253 357.165C154.454 354.372 159.504 351.66 164.456 351.829C168.763 351.976 172.849 355.042 177.045 358.19C179.853 360.297 182.71 362.44 185.716 363.772C195.501 368.106 205.62 371.699 215.73 375.289C218.055 376.114 220.38 376.94 222.7 377.774C222.782 377.804 222.864 377.833 222.946 377.861C223.219 377.957 223.488 378.047 223.752 378.136C226.217 378.964 228.274 379.655 229.132 383.068C231.904 394.094 234.885 405.068 237.867 416.042L237.868 416.048L237.87 416.053C239.337 421.456 240.805 426.858 242.248 432.267C242.581 433.519 242.742 434.817 242.904 436.132C242.98 436.747 243.056 437.366 243.151 437.986C149.153 438.635 61.3138 359.458 59.7661 258.282C63.5749 259.162 67.3802 260.038 71.1824 260.914C86.7555 264.5 102.275 268.074 117.753 271.819C119.136 272.154 120.675 274.269 121.083 275.832C126.663 297.235 135.518 316.97 149.716 334.17C150.759 335.433 150.967 338.343 150.27 339.914C148.041 344.935 145.555 349.841 143.068 354.747C142.165 356.529 141.262 358.311 140.372 360.098ZM58.8232 242.005C60.6742 198.918 74.3032 161.173 102.062 128.775C139.71 86.129 186.348 64.5693 242.831 61.9381C242.729 62.7196 242.658 63.4282 242.591 64.0851C242.462 65.3593 242.352 66.439 242.085 67.4784C241.341 70.3776 240.599 73.2778 239.858 76.178C236.394 89.7254 232.931 103.274 229.13 116.727C228.471 119.059 225.638 121.832 223.288 122.466C203.833 127.712 186.087 136.218 170.007 148.374C168.45 149.551 165.108 149.693 163.216 148.877C158.044 146.646 153.002 144.113 147.317 141.257C145.066 140.126 142.714 138.945 140.213 137.711C141.313 140.194 142.374 142.518 143.388 144.736C145.824 150.068 147.983 154.793 149.727 159.666C150.56 161.994 150.27 165.85 148.818 167.692C135.748 184.283 126.806 202.728 122.063 223.297C121.617 225.232 119.734 227.914 118.049 228.323C102.69 232.05 87.2756 235.546 71.5382 239.116L71.5369 239.116L71.51 239.122L71.4298 239.14C67.252 240.088 63.0515 241.041 58.8232 242.005ZM299.799 310.071C297.565 309.9 295.338 309.73 292.856 309.529C276.368 307.094 267.815 289.195 276.23 275.234C280.585 268.008 288.058 264.6 295.877 266.273C302.876 267.77 307.733 273.532 308.764 281.791C309.041 284.008 309.178 286.242 309.323 288.616C309.392 289.74 309.463 290.895 309.551 292.095C310.192 291.844 310.837 291.624 311.472 291.408C312.814 290.95 314.117 290.507 315.264 289.81C328.154 281.981 334.041 270.265 334.063 255.408C334.085 240.921 323.754 227.744 309.578 224.685C298.128 222.213 287.549 225.148 277.608 230.9C277.088 231.201 276.562 231.492 275.99 231.809C275.709 231.965 275.416 232.127 275.107 232.299C275.692 230.76 276.282 229.26 276.863 227.783C278.117 224.593 279.329 221.51 280.361 218.367C283.507 208.79 284.88 199.103 282.108 189.096C277.514 172.513 265.294 161.839 253.067 151.16L252.662 150.806C252.203 150.406 250.698 150.507 250.192 150.953L249.718 151.371C240.434 159.548 231.137 167.737 224.99 178.743C220.113 187.474 217.133 196.789 219.371 206.752C220.608 212.256 222.405 217.635 224.201 223.014C224.992 225.382 225.783 227.75 226.527 230.129C226.659 230.552 226.805 230.971 226.974 231.453C227.059 231.698 227.15 231.958 227.248 232.244C211.633 223.396 196.198 218.927 180.497 230.806C169.611 239.043 165.558 254.012 170.077 268.977C173.615 280.694 180.894 288.963 193.132 292.328C193.228 291.027 193.29 289.751 193.35 288.497C193.479 285.829 193.603 283.256 194.05 280.74C196.614 266.304 208.967 263.305 218.339 267.641C226.027 271.199 230.894 281.279 229.51 289.693C227.796 300.107 220.142 308.322 211.035 309.421C209.068 309.659 207.089 309.798 205.106 309.938C204.198 310.002 203.288 310.066 202.379 310.14C203.471 313.933 206.136 317.896 209.278 320.024C216.905 325.189 225.14 324.887 233.477 322.218C233.558 323.009 233.612 323.772 233.665 324.512C233.774 326.053 233.877 327.495 234.197 328.887C236.227 337.722 242.157 343.585 249.369 348.481C251.023 349.603 252.242 349.521 253.762 348.311C262.251 341.547 269.025 333.832 268.672 322.049C286.67 328.169 297.946 319.202 299.799 310.071Z" fill="#F2F2F2"/>
</svg>
