<svg width="500" height="500" viewBox="0 0 500 500" fill="none" xmlns="http://www.w3.org/2000/svg">
<path d="M344.803 384.997C350.415 385.453 355.452 385.839 360.505 386.226C356.315 406.903 330.812 427.209 290.106 413.351C290.904 440.034 275.584 457.505 256.384 472.821C252.947 475.562 250.19 475.747 246.45 473.205C230.137 462.119 216.727 448.841 212.134 428.836C211.063 424.169 211.069 419.255 210.507 413.732C191.65 419.777 173.026 420.461 155.777 408.764C148.669 403.945 142.643 394.971 140.172 386.382C146.72 385.851 153.264 385.538 159.751 384.754C180.348 382.265 197.658 363.662 201.533 340.079C204.664 321.026 193.657 298.199 176.268 290.143C155.074 280.324 127.134 287.114 121.335 319.805C119.848 328.183 119.942 336.841 119.259 346.046C91.5805 338.427 75.118 319.7 67.1159 293.168C56.8956 259.28 66.0627 225.381 90.6834 206.729C126.193 179.828 161.102 189.948 196.419 209.985C195.761 208.061 195.238 206.639 194.787 205.195C189.288 187.573 182.631 170.21 178.604 152.258C173.543 129.697 180.282 108.602 191.311 88.831C205.451 63.4825 226.959 44.7338 248.31 25.9004C249.454 24.8907 252.858 24.6605 253.896 25.5684C281.853 50.021 309.989 74.3078 320.494 112.276C326.764 134.938 323.659 156.872 316.544 178.561C313.128 188.972 308.842 199.096 304.661 210.11C306.777 208.926 308.561 207.958 310.316 206.941C332.799 193.917 356.726 187.271 382.623 192.867C414.683 199.796 438.048 229.635 438 262.44C437.95 296.085 424.634 322.615 395.482 340.344C391.659 342.669 387.079 343.749 382.561 345.518C381.939 337.066 381.704 329.583 380.782 322.185C378.449 303.483 367.465 290.434 351.634 287.043C333.95 283.256 317.05 290.974 307.199 307.338C288.167 338.951 307.511 379.485 344.803 384.997Z" fill="#F2F2F2"/>
</svg>
