<svg width="500" height="500" viewBox="0 0 500 500" fill="none" xmlns="http://www.w3.org/2000/svg">
<path fill-rule="evenodd" clip-rule="evenodd" d="M189.582 440.666C189.01 440.185 188.439 439.704 187.865 439.226C168.143 421.869 151.234 402.89 138.443 380.515C130.881 367.287 126.599 352.838 123.775 337.931C122.562 331.531 121.935 325.096 122.005 318.56C122.066 312.89 122.049 307.218 122.032 301.546C122.007 293.184 121.981 284.822 122.206 276.467C122.76 255.846 123.376 235.212 124.734 214.635C124.897 212.158 125.054 209.679 125.21 207.199C125.681 199.753 126.151 192.298 126.809 184.861C127.451 177.607 131.592 174.625 137.406 172.742C152.274 167.926 167.427 163.976 182.764 161.202C200.126 158.062 217.579 155.237 235.353 154.817C237.76 154.76 240.173 154.651 242.588 154.542C246.679 154.358 250.777 154.173 254.866 154.24C274.798 154.563 294.57 156.547 314.14 160.434C330.155 163.615 346.005 167.436 361.548 172.467C370.382 175.327 372.855 178.584 373.286 187.813C373.464 191.636 373.625 195.461 373.785 199.286C374.135 207.629 374.485 215.973 375.024 224.304C375.543 232.333 375.914 240.37 376.285 248.406C376.693 257.234 377.101 266.06 377.704 274.869C378.215 282.321 378.405 289.782 378.594 297.23C378.675 300.432 378.757 303.632 378.863 306.828C379.668 330.934 375.145 354.285 364.112 375.932C357.753 388.41 349.908 400.029 340.441 410.459C338.835 412.229 337.261 414.032 335.688 415.835C332.716 419.239 329.744 422.643 326.552 425.826C314.073 438.269 300.252 449.109 285.898 459.311C276.31 466.127 266.215 472.084 256.073 478.002C252.148 480.293 248.708 480.819 244.468 478.494C226.297 468.53 209.481 456.615 193.302 443.742C192.043 442.74 190.812 441.703 189.582 440.666ZM137.048 92.6702C135.979 89.2376 134.909 85.805 133.832 82.3751C133.654 81.5968 133.368 80.8768 133.097 80.1924C132.396 78.4236 131.789 76.8921 133.374 75.2038C135.538 72.8977 138.056 72.7507 140.962 73.3951C146.918 74.7161 152.839 76.1228 158.618 78.1103C163.89 79.9235 168.113 83.1353 170.056 88.3282C176.72 106.138 205.339 109.092 216.44 93.7666C221.184 87.2183 221.856 79.6836 219.824 72.3347C218.169 66.3452 218.143 61.1662 221.167 55.7032C227.631 44.0235 234.413 32.6366 244.292 23.3918C248.954 19.0282 251.485 18.7418 255.909 23.3096C266.528 34.2737 274.847 46.7509 280.626 60.9458C282.181 64.7661 281.273 68.2833 280.373 71.7742C280.014 73.1626 279.657 74.5468 279.456 75.9442C277.271 91.158 288.748 104.208 304.001 103.473C309.88 103.19 315.574 102.575 320.776 99.4841C325.038 96.9518 327.802 93.2307 329.638 88.7788C331.921 83.2422 335.952 79.7602 341.621 78.1048C343.302 77.6138 344.968 77.0558 346.634 76.4976C351.27 74.9441 355.908 73.3902 360.895 73.2802C365.371 73.1814 367.438 75.6803 366.134 79.8899C360.07 99.4738 353.968 119.047 347.73 138.576C345.973 144.075 342.763 145.7 337.279 144.203C322.188 140.083 306.815 137.28 291.331 135.452C271.447 133.105 251.502 131.908 231.394 133.343C212.589 134.686 193.978 136.919 175.601 141.08C171.425 142.025 167.261 143.062 163.16 144.289C157.78 145.899 154.875 144.887 152.441 139.672C150.032 134.51 148.407 129.065 146.783 123.622C146.107 121.358 145.432 119.094 144.7 116.851C142.078 108.814 139.563 100.742 137.048 92.6702ZM284.71 422.981C300.633 410.548 315.256 396.921 327.341 380.285C331.342 375.597 334.183 370.524 336.945 365.387C345.623 349.25 350.752 332.19 350.432 313.717C350.391 311.358 350.372 308.999 350.354 306.641C350.304 300.413 350.255 294.186 349.799 287.942C349.186 279.541 349.074 271.104 348.963 262.667C348.915 259.041 348.867 255.415 348.779 251.792C348.759 250.959 348.734 250.126 348.692 249.294C348.472 245.007 348.241 240.72 348.01 236.433C347.409 225.265 346.807 214.097 346.406 202.921C346.255 198.714 344.746 196.47 340.816 195.103C331.188 191.755 321.239 189.729 311.305 187.706C309.03 187.242 306.756 186.779 304.486 186.3C289.874 183.218 274.925 182.434 260.03 181.934C235.31 181.104 210.834 183.491 186.636 188.621C177.702 190.515 168.831 192.685 160.135 195.485C160.075 195.504 160.014 195.523 159.953 195.543C157.871 196.211 155.697 196.908 155.547 200.008C155.283 205.443 154.94 210.876 154.596 216.309C154.006 225.648 153.416 234.986 153.23 244.333C153.145 248.611 152.912 252.884 152.679 257.158C152.279 264.51 151.878 271.862 152.23 279.236C152.304 280.785 152.17 282.343 152.036 283.901C151.967 284.697 151.899 285.493 151.858 286.289C151.103 300.978 150.57 315.711 152.621 330.297C154.726 345.271 160.301 359.049 168.37 371.937C179.399 389.553 193.89 403.974 209.49 417.325C220.644 426.872 232.792 435.147 245.384 442.768C249.054 444.988 251.963 445.371 255.653 443.031C265.603 436.723 275.395 430.254 284.71 422.981Z" fill="#F2F2F2"/>
<path d="M216.004 382.726C219.427 383.601 222.956 382.744 226.554 382.754C224.271 391.428 224.298 391.615 231.823 396.073C235.406 398.195 237.548 401.517 240.055 404.671C247.017 413.427 251.385 414.97 258.905 405.649C259.252 405.219 259.613 404.793 259.901 404.324C262.587 399.955 266.603 397.087 270.814 394.362C274.653 391.88 275.329 389.046 273.469 384.832C273.193 384.207 272.85 383.573 273.731 382.574C277.957 383.528 282.463 383.449 286.955 382.558C287.935 382.364 288.954 382.243 289.266 381.126C289.597 379.941 289.145 378.921 288.188 378.189C287.308 377.516 286.367 376.921 285.441 376.309C278.599 371.79 273.795 365.866 272.289 357.646C283.593 351.082 283.932 346.761 273.952 337.788C272.749 336.706 273.067 335.635 273.366 334.412C274.827 328.443 278.768 325.313 286.042 325.291C295.16 325.264 300.859 330.548 298.879 340.548C298.508 342.418 298.226 344.303 298.664 346.396C305.682 347.279 311.159 344.256 316.435 340.524C325.058 334.425 329.72 321.938 327.641 311.921C324.022 294.481 303.625 282.354 285.096 290.349C281.653 291.835 278.436 293.945 274.745 295.152C274.175 293.027 275.413 291.896 276.036 290.571C281.864 278.185 283.973 265.189 281.089 251.799C277.52 235.234 267.819 222.143 255.91 210.576C250.84 205.65 248.434 205.893 243.276 210.812C237.431 216.387 232.636 222.774 228.408 229.615C217.192 247.761 213.631 266.708 222.409 286.954C223.53 289.541 224.527 292.182 226.025 295.899C222.008 294.009 219.035 292.66 216.105 291.223C206.543 286.533 197.08 286.729 187.68 291.689C184.39 293.425 182.405 296.553 179.766 298.982C174.056 304.238 171.788 311.18 172.016 318.39C172.423 331.226 182.712 343.461 195.424 346.194C201.357 347.47 202.046 346.768 200.812 340.897C199.787 336.021 200.275 331.179 204.461 328.024C209.003 324.601 214.457 324.88 219.578 326.674C224.471 328.389 225.941 332.668 226.287 337.423C215.54 343.427 215.805 348.815 227.284 357.629C226.475 362.225 224.374 366.221 221.229 369.664C218.427 372.73 215.378 375.542 211.948 377.906C210.851 378.662 209.963 379.509 210.237 380.953C210.551 382.609 211.949 382.522 213.189 382.611C213.881 382.661 214.577 382.662 216.004 382.726Z" fill="#F2F2F2"/>
</svg>
