<svg width="250" height="250" viewBox="0 0 250 250" fill="none" xmlns="http://www.w3.org/2000/svg">
<path d="M176.584 150.709V166.334C176.59 167.784 176.293 169.22 175.712 170.549C175.13 171.878 174.278 173.071 173.209 174.052C172.14 175.032 170.879 175.779 169.505 176.244C168.13 176.708 166.674 176.881 165.23 176.751C149.203 175.009 133.808 169.533 120.282 160.761C107.698 152.764 97.0284 142.095 89.0319 129.511C80.2297 115.923 74.7519 100.454 73.0423 84.3547C72.9121 82.9144 73.0833 81.4628 73.5449 80.0923C74.0065 78.7218 74.7484 77.4624 75.7233 76.3944C76.6983 75.3263 77.885 74.4729 79.2079 73.8886C80.5307 73.3043 81.9607 73.0019 83.4069 73.0005H99.0319C101.559 72.9756 104.01 73.8707 105.926 75.5189C107.843 77.1671 109.095 79.456 109.449 81.9588C110.108 86.9592 111.331 91.8689 113.094 96.5943C113.795 98.4584 113.947 100.484 113.531 102.432C113.116 104.38 112.151 106.168 110.751 107.584L104.136 114.198C111.55 127.238 122.347 138.034 135.386 145.448L142.001 138.834C143.417 137.434 145.205 136.468 147.152 136.053C149.1 135.638 151.126 135.789 152.99 136.49C157.716 138.253 162.625 139.476 167.626 140.136C170.156 140.493 172.466 141.767 174.118 143.717C175.77 145.666 176.647 148.155 176.584 150.709Z" stroke="#FBFDF7" stroke-width="15" stroke-linecap="round" stroke-linejoin="round"/>
<path d="M218.5 119.542C218.536 133.291 215.324 146.853 209.125 159.125C201.775 173.831 190.477 186.2 176.494 194.847C162.512 203.494 146.398 208.077 129.958 208.084C116.21 208.119 102.647 204.907 90.375 198.709L31 218.5L50.7917 159.125C44.593 146.853 41.3808 133.291 41.4167 119.542C41.423 103.102 46.0064 86.9883 54.6533 73.006C63.3003 59.0237 75.6693 47.725 90.375 40.3753C102.647 34.1767 116.21 30.9645 129.958 31.0003H135.167C156.879 32.1981 177.386 41.3624 192.762 56.7384C208.138 72.1144 217.302 92.6217 218.5 114.334V119.542Z" stroke="#FBFDF7" stroke-width="15" stroke-linecap="round" stroke-linejoin="round"/>
</svg>
